<?xml version="1.0" standalone="no"?><!DOCTYPE svg PUBLIC "-//W3C//DTD SVG 1.1//EN" "http://www.w3.org/Graphics/SVG/1.1/DTD/svg11.dtd"><svg t="1603634919237" class="icon" viewBox="0 0 1024 1024" version="1.1" xmlns="http://www.w3.org/2000/svg" p-id="11143" xmlns:xlink="http://www.w3.org/1999/xlink" width="200" height="200"><defs><style type="text/css"></style></defs><path d="M29.381772 120.037733l453.660918 453.666336c15.992267 15.994073 41.934997 15.994073 57.927264 0L994.632678 120.037733c15.000653-15.002459 15.000653-39.315979 0-54.303988-14.988009-15.000653-39.301529-15.000653-54.303988 0-142.774424 142.778036-285.55246 285.543429-428.31424 428.321465-142.778036-142.778036-285.55246-285.543429-428.330496-428.321465-15.000653-15.000653-39.301529-15.000653-54.302182 0-15.000653 14.988009-15.000653 39.303336 0 54.303988z" fill="#CEA152" p-id="11144"></path><path d="M29.381772 503.857563c151.214887 151.2185 302.431581 302.449643 453.660918 453.666336 15.992267 16.008523 41.934997 16.008523 57.927264 0l453.662724-453.666336c14.988009-15.002459 14.988009-39.315979 0-54.303988-15.000653-15.000653-39.315979-15.000653-54.303988 0a13680362.528566 13680362.528566 0 0 1-428.326884 428.321464C369.22377 735.109647 226.46199 592.331611 83.683954 449.553575c-15.000653-15.000653-39.315979-15.000653-54.302182 0-15.000653 14.988009-15.000653 39.301529 0 54.303988z" fill="#CEA152" p-id="11145"></path></svg>